<svg width="114" height="26" viewBox="0 0 114 26" fill="none" xmlns="http://www.w3.org/2000/svg">
<g clip-path="url(#clip0_190_1211)">
<path fill-rule="evenodd" clip-rule="evenodd" d="M30.6868 16.9035L25.2723 8.59957L25.6352 7.79448C27.7371 7.53264 29.0952 6.17003 29.0952 4.41378C29.0952 2.06618 27.473 1.55854 25.5364 1.55854C24.9238 1.55854 22.9208 1.60841 22.9208 1.60841L22.9531 16.6096H20.8513V0.130027C20.8513 0.130027 24.8089 0 25.6029 0C27.6544 0 31.2976 0.211961 31.2976 4.24991C31.2976 7.53264 28.285 8.46955 27.8035 8.69754L32.6539 16.0182L30.685 16.9035H30.6868Z" fill="white"/>
<path fill-rule="evenodd" clip-rule="evenodd" d="M108.386 11.332H104.351L106.387 6.31435L108.388 11.332H108.386ZM110.502 16.5117H112.227L107.021 3.92578H105.882L100.609 16.5117H102.253L103.847 12.5913H108.923L110.502 16.5117Z" fill="white"/>
<path fill-rule="evenodd" clip-rule="evenodd" d="M88.144 5.53875C88.6488 5.49066 88.859 5.49066 89.2021 5.49066C90.6177 5.49066 91.789 5.71687 92.7339 6.16929C94.3129 6.89423 95.3369 8.65404 95.3369 10.5742C95.3369 11.8157 94.9309 12.9289 94.198 13.7678C93.3357 14.7511 91.9848 15.2035 89.8865 15.2035C89.2991 15.2035 88.8446 15.1714 88.144 15.0734V5.53875ZM86.5002 4.23314V16.4467C87.6392 16.5429 88.2895 16.5768 89.2021 16.5768C91.1063 16.5768 92.4087 16.3987 93.58 15.9783C95.7124 15.2035 97.128 12.977 97.128 10.396C97.128 8.63801 96.4615 6.99042 95.2884 5.86292C94.0201 4.71762 92.0979 4.11914 89.6242 4.11914C88.9739 4.11914 88.1116 4.13695 87.2637 4.19929L86.5002 4.23136V4.23314Z" fill="white"/>
<path fill-rule="evenodd" clip-rule="evenodd" d="M77.7607 11.332H73.7421L75.7433 6.31435L77.7607 11.332ZM79.8607 16.5117H81.6195L76.4116 3.92578H75.2565L69.9678 16.5117H71.6115L73.2211 12.5913H78.2978L79.8607 16.5117Z" fill="white"/>
<path fill-rule="evenodd" clip-rule="evenodd" d="M64.2711 4.16797H63.1322L58.51 14.1729L53.8554 4.16797H52.7326L51.2039 16.5116H52.7326L53.7261 7.62169L57.9082 16.5116H58.8998L63.1322 7.42754L64.0753 16.5116H65.7352L64.2711 4.16797Z" fill="white"/>
<path fill-rule="evenodd" clip-rule="evenodd" d="M43.1486 11.332H39.0976L41.1312 6.31435L43.1486 11.332ZM45.2468 16.5117H46.9876L41.7635 3.92578H40.6408L35.3521 16.5117H36.9958L38.591 12.5913H43.6678L45.2468 16.5117Z" fill="white"/>
<path fill-rule="evenodd" clip-rule="evenodd" d="M112.628 3.94597C112.55 3.94597 112.473 3.95132 112.398 3.96378C112.326 3.97625 112.254 3.99763 112.184 4.02613C112.116 4.05463 112.049 4.09025 111.99 4.133C111.927 4.17575 111.868 4.22562 111.814 4.28084C111.598 4.49458 111.476 4.78491 111.476 5.08771C111.476 5.39052 111.596 5.68085 111.814 5.89459C111.868 5.94981 111.927 5.99968 111.99 6.04243C112.051 6.08518 112.117 6.11902 112.184 6.14752C112.252 6.17602 112.324 6.19739 112.398 6.20986C112.475 6.22411 112.55 6.22946 112.628 6.22767C112.933 6.22767 113.226 6.10834 113.441 5.89281C113.659 5.67907 113.779 5.38873 113.779 5.08593C113.781 5.00934 113.774 4.93275 113.761 4.85794C113.748 4.78491 113.727 4.71545 113.698 4.64598C113.671 4.57829 113.635 4.51417 113.592 4.45361C113.549 4.38949 113.499 4.33249 113.441 4.27905C113.389 4.22384 113.33 4.17396 113.265 4.13122C113.204 4.09025 113.139 4.05284 113.071 4.02435C113.003 3.99585 112.931 3.97625 112.859 3.962C112.784 3.94954 112.707 3.94241 112.629 3.94419M112.628 3.73045C112.721 3.73045 112.813 3.73757 112.902 3.75539C112.99 3.77142 113.075 3.79635 113.157 3.8302C113.24 3.86404 113.317 3.90679 113.391 3.95488C113.466 4.00653 113.538 4.06531 113.603 4.13122C113.86 4.38593 114.002 4.73148 114 5.0895C114 5.4493 113.853 5.79306 113.596 6.04421C113.533 6.11012 113.463 6.16889 113.387 6.22055C113.314 6.27042 113.237 6.31317 113.156 6.34701C113.075 6.37908 112.989 6.40401 112.902 6.42004C112.813 6.43607 112.721 6.4432 112.629 6.44142C112.538 6.44142 112.444 6.43429 112.353 6.41648C112.266 6.40045 112.18 6.37551 112.099 6.34167C112.017 6.30783 111.938 6.26508 111.866 6.21521C111.79 6.16355 111.719 6.10477 111.654 6.03887C111.399 5.78416 111.257 5.43861 111.257 5.08059C111.257 4.72079 111.404 4.37702 111.661 4.12409C111.726 4.05819 111.796 3.99941 111.869 3.94775C111.943 3.8961 112.02 3.85513 112.101 3.82129C112.184 3.78745 112.266 3.76429 112.354 3.74826C112.444 3.73045 112.538 3.72511 112.629 3.72689M112.354 4.9755H112.787C112.859 4.97372 112.922 4.93097 112.951 4.86685C112.978 4.81163 112.981 4.74751 112.962 4.69051C112.942 4.63351 112.899 4.58542 112.843 4.5587C112.816 4.54623 112.787 4.53911 112.759 4.53733H112.353V4.97728L112.354 4.9755ZM112.024 5.83581V4.28262H112.834C112.911 4.27906 112.989 4.29687 113.057 4.33605C113.159 4.38949 113.235 4.48389 113.269 4.59433C113.301 4.70476 113.289 4.8241 113.233 4.92384C113.181 5.02003 113.089 5.08771 112.981 5.10909C113.06 5.11443 113.131 5.16074 113.166 5.23021C113.215 5.28543 113.238 5.35845 113.231 5.43148V5.71113C113.235 5.75388 113.242 5.79485 113.258 5.83403H112.956C112.94 5.78594 112.929 5.73607 112.928 5.68441V5.56151C112.933 5.47601 112.91 5.39052 112.856 5.32283C112.831 5.28899 112.798 5.26227 112.76 5.24268C112.721 5.2213 112.678 5.21418 112.633 5.21596H112.351V5.83403H112.02L112.024 5.83581Z" fill="white"/>
<path d="M15.2463 8.94999C15.2463 4.77488 11.8331 1.39062 7.62228 1.39062C3.41143 1.39062 0 4.77488 0 8.94999C0 12.637 2.66052 15.7043 6.18153 16.374C4.69049 15.2144 4.04917 12.5248 4.04917 8.437H1.72099V7.90087H7.48395V10.3927C8.15222 8.84311 9.38997 7.61944 11.3625 7.61944C12.8373 7.61944 13.8505 8.71843 13.8505 9.96348C13.8505 11.0197 13.3062 11.9406 12.099 11.9406C10.978 11.9406 10.3133 11.5042 10.3133 10.4765C10.3133 9.85127 10.5523 9.53243 10.5936 9.09961C10.6277 8.77187 10.3978 8.56347 9.98459 8.56347C9.3756 8.56347 7.43006 10.1202 7.43006 13.3281C7.43006 14.6373 7.53245 16.3294 8.54924 16.4488C12.32 15.9964 15.2463 12.8116 15.2463 8.94821V8.94999ZM9.74566 7.45023C6.52106 7.36473 5.17194 4.94409 5.31386 2.43796C8.13965 2.52346 10.0295 4.61992 9.74566 7.45023Z" fill="white"/>
<path d="M32.4885 23.33C32.5909 23.33 32.6502 23.3371 32.6664 23.3531C32.6826 23.3674 32.6915 23.4208 32.6915 23.5099V25.544C32.6915 25.5903 32.6754 25.6312 32.6448 25.6651C32.6125 25.6989 32.5784 25.7257 32.5388 25.7417C32.3053 25.8183 32.061 25.8771 31.8077 25.918C31.5526 25.959 31.2867 25.9786 31.0101 25.9786C30.6077 25.9786 30.234 25.9234 29.8927 25.8147C29.5496 25.7061 29.255 25.5475 29.0071 25.3391C28.7591 25.1325 28.5669 24.8742 28.4286 24.5697C28.2903 24.2633 28.2202 23.9142 28.2202 23.5205C28.2202 23.1607 28.2849 22.8312 28.4124 22.532C28.5418 22.2327 28.725 21.9745 28.9657 21.7554C29.2065 21.5363 29.4993 21.3671 29.8424 21.246C30.1873 21.1248 30.5753 21.0625 31.0083 21.0625C31.2795 21.0625 31.5167 21.0732 31.7179 21.0946C31.9191 21.1159 32.1346 21.1587 32.3628 21.2228C32.4364 21.2406 32.4652 21.2834 32.4508 21.3511L32.4149 21.5879C32.4095 21.6432 32.3736 21.6628 32.3053 21.6449C32.0861 21.5719 31.8778 21.5238 31.6784 21.5007C31.4789 21.4775 31.2562 21.465 31.0083 21.465C30.6634 21.465 30.3508 21.5149 30.0723 21.6164C29.7939 21.718 29.555 21.8569 29.3592 22.0368C29.1633 22.2167 29.0124 22.4322 28.9082 22.6852C28.8041 22.9381 28.752 23.216 28.752 23.5188C28.752 23.8483 28.8076 24.1422 28.919 24.3987C29.0304 24.6552 29.1867 24.8707 29.3879 25.0435C29.5891 25.2162 29.828 25.348 30.1011 25.4389C30.3759 25.5279 30.6777 25.5742 31.0083 25.5742C31.5472 25.5742 31.9299 25.5173 32.158 25.4015V23.7325H30.6939C30.6256 23.7325 30.5915 23.7022 30.5915 23.6434V23.419C30.5915 23.3585 30.6256 23.33 30.6939 23.33H32.485H32.4885Z" fill="white"/>
<path d="M38.5767 25.8086C38.6001 25.8692 38.5785 25.8977 38.512 25.8977H38.1617C38.133 25.8977 38.1078 25.8941 38.0845 25.8852C38.0629 25.8763 38.0414 25.8514 38.0234 25.8086L37.4845 24.6277H34.7467C34.6551 24.8289 34.5653 25.0249 34.4772 25.2172C34.3892 25.4096 34.303 25.6073 34.215 25.8068C34.1952 25.8496 34.1754 25.8745 34.1539 25.8834C34.1323 25.8923 34.1072 25.8959 34.0766 25.8959H33.7335C33.6653 25.8959 33.6437 25.8656 33.6688 25.8068L35.8102 21.2114C35.8353 21.1597 35.8785 21.1348 35.9413 21.1348H36.3851C36.4479 21.1348 36.491 21.1597 36.5162 21.2114L38.5767 25.8068V25.8086ZM37.3102 24.2162C37.1072 23.7709 36.9114 23.3328 36.7246 22.8981C36.5378 22.4635 36.3419 22.0236 36.1389 21.5801C35.9359 22.0254 35.7347 22.4653 35.5389 22.8981C35.3431 23.3328 35.1419 23.7727 34.9389 24.2162H37.312H37.3102Z" fill="white"/>
<path d="M39.8432 25.8978H39.5162C39.448 25.8978 39.4138 25.8676 39.4138 25.8088V21.3166C39.4138 21.2276 39.4228 21.1741 39.439 21.1599C39.4551 21.1456 39.5162 21.1367 39.6168 21.1367H39.951C40.0138 21.1367 40.0569 21.1421 40.0785 21.1527C40.1001 21.1634 40.1234 21.1884 40.1486 21.2258L42.8935 25.3777V21.2258C42.8935 21.1652 42.9276 21.1367 42.9959 21.1367H43.3157C43.3839 21.1367 43.4181 21.167 43.4181 21.2258V25.7179C43.4181 25.807 43.4091 25.8604 43.3929 25.8747C43.375 25.8889 43.3157 25.8978 43.2151 25.8978H42.7714C42.7318 25.8978 42.7049 25.8943 42.6869 25.8854C42.6708 25.8765 42.6492 25.8551 42.6258 25.8212L39.9456 21.7405V25.8088C39.9456 25.8693 39.9114 25.8978 39.8432 25.8978Z" fill="white"/>
<path d="M48.8811 23.33C48.9835 23.33 49.0428 23.3371 49.059 23.3531C49.0751 23.3674 49.0841 23.4208 49.0841 23.5099V25.544C49.0841 25.5903 49.068 25.6312 49.0374 25.6651C49.0051 25.6989 48.9709 25.7257 48.9314 25.7417C48.6979 25.8183 48.4536 25.8771 48.2003 25.918C47.9452 25.959 47.6793 25.9786 47.4027 25.9786C47.0003 25.9786 46.6266 25.9234 46.2853 25.8147C45.9422 25.7061 45.6475 25.5475 45.3996 25.3391C45.1517 25.1325 44.9595 24.8742 44.8212 24.5697C44.6829 24.2633 44.6128 23.9142 44.6128 23.5205C44.6128 23.1607 44.6775 22.8312 44.805 22.532C44.9344 22.2327 45.1176 21.9745 45.3583 21.7554C45.599 21.5363 45.8919 21.3671 46.235 21.246C46.5799 21.1248 46.9679 21.0625 47.4009 21.0625C47.6721 21.0625 47.9093 21.0732 48.1105 21.0946C48.3117 21.1159 48.5272 21.1587 48.7554 21.2228C48.829 21.2406 48.8578 21.2834 48.8434 21.3511L48.8075 21.5879C48.8021 21.6432 48.7662 21.6628 48.6979 21.6449C48.4787 21.5719 48.2703 21.5238 48.0709 21.5007C47.8715 21.4775 47.6488 21.465 47.4009 21.465C47.0559 21.465 46.7434 21.5149 46.4649 21.6164C46.1865 21.718 45.9475 21.8569 45.7517 22.0368C45.5559 22.2167 45.405 22.4322 45.3008 22.6852C45.1966 22.9381 45.1445 23.216 45.1445 23.5188C45.1445 23.8483 45.2002 24.1422 45.3116 24.3987C45.423 24.6552 45.5793 24.8707 45.7805 25.0435C45.9817 25.2162 46.2206 25.348 46.4937 25.4389C46.7685 25.5279 47.0703 25.5742 47.4009 25.5742C47.9398 25.5742 48.3224 25.5173 48.5506 25.4015V23.7325H47.0865C47.0182 23.7325 46.9841 23.7022 46.9841 23.6434V23.419C46.9841 23.3585 47.0182 23.33 47.0865 23.33H48.8775H48.8811Z" fill="white"/>
<path d="M55.6392 25.8328C55.6248 25.8755 55.5925 25.8969 55.544 25.8969H55.0554C55.0015 25.8969 54.9709 25.8755 54.9601 25.8328L53.5984 21.6612C53.3649 22.3577 53.135 23.0524 52.9068 23.7435C52.6787 24.4346 52.4487 25.131 52.2152 25.8328C52.2008 25.8755 52.1685 25.8969 52.12 25.8969H51.617C51.5631 25.8969 51.5325 25.8755 51.5218 25.8328L50.0289 21.2373C50.0199 21.216 50.0217 21.1964 50.0361 21.1768C50.0505 21.1572 50.072 21.1483 50.1008 21.1483H50.4439C50.5122 21.1483 50.5553 21.1785 50.575 21.2373L51.8864 25.4089C52.1146 24.7071 52.3427 24.0178 52.5709 23.3391C52.799 22.6605 53.0272 21.9712 53.2553 21.2694C53.2643 21.2266 53.2859 21.1964 53.32 21.1768C53.3541 21.1572 53.3937 21.1483 53.4368 21.1483H53.8158C53.8985 21.1483 53.9523 21.1892 53.9757 21.2694L55.3087 25.3821C55.5314 24.6715 55.7524 23.9804 55.9715 23.3088C56.1907 22.6373 56.4135 21.9462 56.6416 21.2355C56.6506 21.2106 56.6686 21.1892 56.6919 21.1714C56.7153 21.1536 56.7422 21.1465 56.7727 21.1465H57.0781C57.1069 21.1465 57.1284 21.1554 57.1446 21.175C57.159 21.1946 57.1608 21.2142 57.1518 21.2355L55.6374 25.831L55.6392 25.8328Z" fill="white"/>
<path d="M62.6076 23.5232C62.5986 24.2856 62.3992 24.8787 62.0112 25.308C61.589 25.7693 60.9944 26.0009 60.2273 26.0009C59.4602 26.0009 58.8638 25.7693 58.4363 25.308C58.0375 24.868 57.8398 24.2731 57.8398 23.5232C57.8398 23.1688 57.8883 22.8482 57.9854 22.5614C58.0824 22.2746 58.2225 22.0199 58.4075 21.7973C58.6267 21.5622 58.889 21.3787 59.1979 21.2487C59.5069 21.1186 59.8501 21.0527 60.2291 21.0527C60.6081 21.0527 60.9567 21.1169 61.2603 21.2451C61.5639 21.3733 61.8243 21.5604 62.0435 21.8026C62.2321 22.0342 62.3758 22.2907 62.4729 22.5756C62.5699 22.8606 62.6166 23.1759 62.6112 23.5215L62.6076 23.5232ZM62.0758 23.5232C62.0758 23.2543 62.0363 22.9996 61.9591 22.7591C61.8818 22.5204 61.7722 22.3031 61.6321 22.1108C61.4615 21.9006 61.2603 21.7403 61.0249 21.6263C60.7896 21.5123 60.5237 21.4571 60.2273 21.4571C59.9309 21.4571 59.6578 21.5141 59.4225 21.6263C59.1872 21.7403 58.9842 21.9006 58.8153 22.1108C58.6752 22.3031 58.5656 22.5187 58.4884 22.7591C58.4111 22.9996 58.3716 23.2525 58.3716 23.5232C58.3716 23.794 58.4111 24.0487 58.4884 24.2909C58.5656 24.5332 58.6752 24.7505 58.8153 24.9428C58.9896 25.1477 59.1962 25.308 59.4351 25.4238C59.674 25.5395 59.9381 25.5965 60.2291 25.5965C60.5201 25.5965 60.7914 25.5395 61.0267 25.4273C61.2621 25.3133 61.465 25.153 61.6339 24.9428C61.774 24.7505 61.8836 24.5332 61.9609 24.2909C62.0381 24.0487 62.0776 23.794 62.0776 23.5232H62.0758Z" fill="white"/>
<path d="M64.1669 25.8978H63.8399C63.7717 25.8978 63.7375 25.8676 63.7375 25.8088V21.3166C63.7375 21.2276 63.7465 21.1741 63.7627 21.1599C63.7789 21.1456 63.8399 21.1367 63.9405 21.1367H64.2747C64.3376 21.1367 64.3807 21.1421 64.4022 21.1527C64.4238 21.1634 64.4471 21.1884 64.4705 21.2258L67.2155 25.3777V21.2258C67.2155 21.1652 67.2496 21.1367 67.3178 21.1367H67.6376C67.7059 21.1367 67.74 21.167 67.74 21.2258V25.7179C67.74 25.807 67.731 25.8604 67.7149 25.8747C67.6969 25.8889 67.6376 25.8978 67.537 25.8978H67.0933C67.0538 25.8978 67.0268 25.8943 67.0089 25.8854C66.9927 25.8765 66.9711 25.8551 66.9478 25.8212L64.2675 21.7405V25.8088C64.2675 25.8693 64.2334 25.8978 64.1651 25.8978H64.1669Z" fill="white"/>
<path d="M71.0328 25.8334C70.9555 25.8121 70.9232 25.7729 70.9376 25.7177L70.9663 25.422C70.9753 25.3881 70.9915 25.365 71.013 25.3507C71.0346 25.3383 71.0597 25.3401 71.0903 25.3579C71.2609 25.4398 71.4316 25.4986 71.604 25.5342C71.7765 25.5698 71.9741 25.5894 72.1969 25.5894C72.5508 25.5894 72.8418 25.5039 73.0663 25.3329C73.2927 25.1619 73.4041 24.9197 73.4041 24.608C73.4041 24.4833 73.3502 24.3604 73.2406 24.2357C73.131 24.111 72.9801 23.9935 72.7861 23.883C72.6154 23.7886 72.425 23.6907 72.2112 23.5874C71.9975 23.4841 71.7945 23.3718 71.6005 23.2507C71.4064 23.1296 71.243 22.9924 71.1118 22.8393C70.9807 22.6879 70.916 22.5115 70.916 22.3103C70.916 22.109 70.9645 21.9237 71.0615 21.7688C71.1585 21.612 71.2879 21.482 71.4513 21.3769C71.613 21.2718 71.7999 21.1917 72.0082 21.1365C72.2166 21.0812 72.4304 21.0527 72.6496 21.0527C72.8382 21.0527 73.0071 21.0616 73.1526 21.0812C73.2981 21.1008 73.4562 21.1329 73.625 21.181C73.6987 21.2024 73.7274 21.2415 73.7131 21.2968L73.6556 21.5479C73.6412 21.6209 73.5999 21.6405 73.5316 21.6049C73.3951 21.5497 73.264 21.5123 73.1346 21.4927C73.0053 21.4731 72.8418 21.4642 72.6424 21.4642C72.4825 21.4642 72.3298 21.482 72.1879 21.5158C72.0442 21.5497 71.9202 21.6013 71.816 21.669C71.7118 21.7367 71.6274 21.8222 71.5645 21.9255C71.5017 22.0288 71.4693 22.1499 71.4693 22.2907C71.4693 22.4011 71.5124 22.5062 71.5969 22.6041C71.6813 22.7021 71.7855 22.7947 71.9094 22.8802C72.0334 22.9657 72.1663 23.0441 72.31 23.1136C72.4538 23.1848 72.5831 23.2489 72.6999 23.3095C72.8598 23.3914 73.016 23.4734 73.1652 23.5589C73.3161 23.6444 73.449 23.7405 73.5658 23.8474C73.6825 23.9543 73.7777 24.0718 73.8496 24.2001C73.9232 24.3283 73.9592 24.4762 73.9592 24.6436C73.9592 24.8574 73.9089 25.0479 73.8101 25.2154C73.7113 25.3828 73.5783 25.5235 73.4131 25.6393C73.2478 25.7551 73.0574 25.8441 72.8418 25.9065C72.6262 25.9688 72.4017 25.9991 72.1681 25.9991C71.9544 25.9991 71.7639 25.9866 71.5969 25.9599C71.4298 25.935 71.2412 25.8922 71.0328 25.8317V25.8334Z" fill="white"/>
<path d="M79.6413 23.5232C79.6323 24.2856 79.4329 24.8787 79.0449 25.308C78.6227 25.7693 78.0281 26.0009 77.261 26.0009C76.4939 26.0009 75.8975 25.7693 75.4699 25.308C75.0711 24.868 74.8735 24.2731 74.8735 23.5232C74.8735 23.1688 74.922 22.8482 75.019 22.5614C75.1161 22.2746 75.2562 22.0199 75.4412 21.7973C75.6604 21.5622 75.9227 21.3787 76.2316 21.2487C76.5406 21.1186 76.8837 21.0527 77.2628 21.0527C77.6418 21.0527 77.9903 21.1169 78.2939 21.2451C78.5975 21.3733 78.858 21.5604 79.0772 21.8026C79.2658 22.0342 79.4095 22.2907 79.5065 22.5756C79.6035 22.8606 79.6503 23.1759 79.6449 23.5215L79.6413 23.5232ZM79.1095 23.5232C79.1095 23.2543 79.07 22.9996 78.9928 22.7591C78.9155 22.5204 78.8059 22.3031 78.6658 22.1108C78.4951 21.9006 78.2939 21.7403 78.0586 21.6263C77.8233 21.5123 77.5574 21.4571 77.261 21.4571C76.9646 21.4571 76.6915 21.5141 76.4562 21.6263C76.2209 21.7403 76.0179 21.9006 75.849 22.1108C75.7089 22.3031 75.5993 22.5187 75.522 22.7591C75.4448 22.9996 75.4053 23.2525 75.4053 23.5232C75.4053 23.794 75.4448 24.0487 75.522 24.2909C75.5993 24.5332 75.7089 24.7505 75.849 24.9428C76.0233 25.1477 76.2298 25.308 76.4688 25.4238C76.7059 25.5395 76.9718 25.5965 77.2628 25.5965C77.5538 25.5965 77.8251 25.5395 78.0604 25.4273C78.2957 25.3133 78.4987 25.153 78.6676 24.9428C78.8077 24.7505 78.9173 24.5332 78.9946 24.2909C79.0718 24.0487 79.1113 23.794 79.1113 23.5232H79.1095Z" fill="white"/>
<path d="M82.1528 23.5352L81.4396 24.2726V25.8062C81.4396 25.8668 81.4055 25.8953 81.3372 25.8953H81.0174C80.9492 25.8953 80.915 25.865 80.915 25.8062V21.2375C80.915 21.1769 80.9492 21.1484 81.0174 21.1484H81.3372C81.4055 21.1484 81.4396 21.1787 81.4396 21.2375V23.6831L83.6905 21.2375C83.7588 21.1769 83.8414 21.1484 83.9384 21.1484H84.3462C84.375 21.1484 84.3929 21.1573 84.4001 21.1769C84.4073 21.1965 84.4001 21.2161 84.375 21.2375L82.4959 23.1826L84.5492 25.808C84.5923 25.8686 84.5834 25.8971 84.5205 25.8971H84.1271C84.0786 25.8971 84.0354 25.89 83.9959 25.8775C83.9564 25.865 83.9259 25.8401 83.9007 25.8062L82.1528 23.5352Z" fill="white"/>
<path d="M89.1373 25.4357C89.166 25.4268 89.193 25.4268 89.2181 25.4321C89.2415 25.4392 89.2541 25.4553 89.2541 25.4802L89.2684 25.7313C89.2738 25.7866 89.2397 25.8257 89.166 25.8471C89.0062 25.8934 88.8409 25.929 88.6702 25.9504C88.4996 25.9718 88.2858 25.9825 88.0289 25.9825C87.1846 25.9825 86.5109 25.7563 86.0115 25.3021C85.7636 25.0794 85.5804 24.8212 85.4618 24.5255C85.3432 24.2298 85.2839 23.8967 85.2839 23.5244C85.2839 22.7924 85.5336 22.201 86.0331 21.7468C86.5432 21.2926 87.2079 21.0664 88.0289 21.0664C88.1457 21.0664 88.2516 21.0682 88.3451 21.0735C88.4403 21.0771 88.5319 21.0842 88.6217 21.0931C88.7115 21.102 88.7996 21.1127 88.8876 21.1252C88.9756 21.1377 89.0672 21.1555 89.1642 21.1768C89.2379 21.1893 89.2702 21.2303 89.2666 21.298L89.2523 21.5545C89.2433 21.615 89.2056 21.6328 89.1427 21.6115C88.9541 21.5562 88.7744 21.5188 88.6038 21.4992C88.4331 21.4796 88.2427 21.4707 88.0289 21.4707C87.3444 21.4707 86.7983 21.6631 86.3905 22.0478C86.0115 22.4201 85.8229 22.9117 85.8229 23.5244C85.8229 23.8326 85.8696 24.1105 85.9612 24.358C86.0528 24.6056 86.1947 24.8229 86.3834 25.0064C86.7768 25.3911 87.3247 25.5817 88.0289 25.5782C88.2319 25.5746 88.4349 25.5603 88.6361 25.539C88.8373 25.5176 89.0044 25.4838 89.1355 25.4357H89.1373Z" fill="white"/>
<path d="M94.241 25.8089C94.241 25.8695 94.2069 25.898 94.1386 25.898H93.8117C93.7434 25.898 93.7093 25.8677 93.7093 25.8089V23.6466H90.95V25.8089C90.95 25.8695 90.9158 25.898 90.8476 25.898H90.5206C90.4523 25.898 90.4182 25.8677 90.4182 25.8089V21.2277C90.4182 21.1672 90.4523 21.1387 90.5206 21.1387H90.8476C90.9158 21.1387 90.95 21.169 90.95 21.2277V23.2423H93.7093V21.2277C93.7093 21.1672 93.7434 21.1387 93.8117 21.1387H94.1386C94.2069 21.1387 94.241 21.169 94.241 21.2277V25.8089Z" fill="white"/>
<path d="M100.227 23.5232C100.218 24.2856 100.018 24.8787 99.6303 25.308C99.2081 25.7693 98.6135 26.0009 97.8464 26.0009C97.0794 26.0009 96.483 25.7693 96.0554 25.308C95.6566 24.868 95.459 24.2731 95.459 23.5232C95.459 23.1688 95.5075 22.8482 95.6045 22.5614C95.7015 22.2746 95.8416 22.0199 96.0267 21.7973C96.2458 21.5622 96.5081 21.3787 96.8171 21.2487C97.1261 21.1186 97.4692 21.0527 97.8482 21.0527C98.2273 21.0527 98.5758 21.1169 98.8794 21.2451C99.183 21.3733 99.4435 21.5604 99.6626 21.8026C99.8513 22.0342 99.995 22.2907 100.092 22.5756C100.189 22.8606 100.236 23.1759 100.23 23.5215L100.227 23.5232ZM99.695 23.5232C99.695 23.2543 99.6555 22.9996 99.5782 22.7591C99.501 22.5204 99.3914 22.3031 99.2513 22.1108C99.0806 21.9006 98.8794 21.7403 98.6441 21.6263C98.4087 21.5123 98.1429 21.4571 97.8464 21.4571C97.55 21.4571 97.277 21.5141 97.0416 21.6263C96.8063 21.7403 96.6033 21.9006 96.4344 22.1108C96.2943 22.3031 96.1847 22.5187 96.1075 22.7591C96.0302 22.9996 95.9907 23.2525 95.9907 23.5232C95.9907 23.794 96.0302 24.0487 96.1075 24.2909C96.1847 24.5332 96.2943 24.7505 96.4344 24.9428C96.6087 25.1477 96.8153 25.308 97.0542 25.4238C97.2913 25.5395 97.5572 25.5965 97.8482 25.5965C98.1393 25.5965 98.4105 25.5395 98.6459 25.4273C98.8812 25.3133 99.0842 25.153 99.2531 24.9428C99.3932 24.7505 99.5028 24.5332 99.58 24.2909C99.6573 24.0487 99.6968 23.794 99.6968 23.5232H99.695Z" fill="white"/>
</g>
<defs>
<clipPath id="clip0_190_1211">
<rect width="114" height="26" fill="white"/>
</clipPath>
</defs>
</svg>
