<svg width="193" height="44" viewBox="0 0 193 44" fill="none" xmlns="http://www.w3.org/2000/svg">
<g clip-path="url(#clip0_351_272)">
<path fill-rule="evenodd" clip-rule="evenodd" d="M51.9521 28.6059L42.7855 14.5531L43.3999 13.1907C46.9582 12.7476 49.2575 10.4416 49.2575 7.46948C49.2575 3.49661 46.5111 2.63753 43.2326 2.63753C42.1955 2.63753 38.8044 2.72193 38.8044 2.72193L38.8591 28.1085H35.3008V0.220045C35.3008 0.220045 42.0008 0 43.3451 0C46.8183 0 52.9861 0.358704 52.9861 7.19216C52.9861 12.7476 47.8858 14.3331 47.0707 14.7189L55.2823 27.1078L51.949 28.6059H51.9521Z" fill="white"/>
<path fill-rule="evenodd" clip-rule="evenodd" d="M183.496 19.1781H176.665L180.111 10.6867L183.499 19.1781H183.496ZM187.079 27.9437H189.998L181.184 6.64453H179.256L170.33 27.9437H173.113L175.81 21.3092H184.405L187.079 27.9437Z" fill="white"/>
<path fill-rule="evenodd" clip-rule="evenodd" d="M149.226 9.37507C150.081 9.29368 150.437 9.29368 151.017 9.29368C153.414 9.29368 155.397 9.6765 156.997 10.4421C159.67 11.669 161.404 14.6471 161.404 17.8965C161.404 19.9975 160.716 21.8815 159.475 23.3012C158.016 24.9651 155.728 25.7308 152.176 25.7308C151.182 25.7308 150.412 25.6765 149.226 25.5107V9.37507ZM146.443 7.16557V27.8348C148.371 27.9975 149.472 28.0548 151.017 28.0548C154.241 28.0548 156.446 27.7534 158.429 27.042C162.039 25.7308 164.436 21.9629 164.436 17.5951C164.436 14.62 163.307 11.8317 161.321 9.92367C159.174 7.98547 155.92 6.97266 151.732 6.97266C150.631 6.97266 149.171 7.0028 147.736 7.1083L146.443 7.16256V7.16557Z" fill="white"/>
<path fill-rule="evenodd" clip-rule="evenodd" d="M131.647 19.1781H124.844L128.232 10.6867L131.647 19.1781ZM135.202 27.9437H138.18L129.363 6.64453H127.408L118.454 27.9437H121.237L123.962 21.3092H132.557L135.202 27.9437Z" fill="white"/>
<path fill-rule="evenodd" clip-rule="evenodd" d="M108.81 7.05273H106.882L99.0564 23.9842L91.1763 7.05273H89.2754L86.6873 27.942H89.2754L90.9573 12.8975L98.0375 27.942H99.7163L106.882 12.5689L108.478 27.942H111.289L108.81 7.05273Z" fill="white"/>
<path fill-rule="evenodd" clip-rule="evenodd" d="M73.0497 19.1781H66.1915L69.6343 10.6867L73.0497 19.1781ZM76.602 27.9437H79.5491L70.7049 6.64453H68.804L59.8503 27.9437H62.6332L65.3339 21.3092H73.9287L76.602 27.9437Z" fill="white"/>
<path fill-rule="evenodd" clip-rule="evenodd" d="M190.676 6.676C190.546 6.676 190.415 6.68504 190.287 6.70614C190.166 6.72724 190.044 6.76341 189.925 6.81164C189.81 6.85987 189.697 6.92016 189.597 6.9925C189.49 7.06484 189.39 7.14925 189.299 7.24269C188.934 7.60441 188.727 8.09574 188.727 8.60817C188.727 9.12061 188.931 9.61194 189.299 9.97366C189.39 10.0671 189.49 10.1515 189.597 10.2238C189.7 10.2962 189.813 10.3535 189.925 10.4017C190.041 10.4499 190.163 10.4861 190.287 10.5072C190.418 10.5313 190.546 10.5404 190.676 10.5373C191.194 10.5373 191.689 10.3354 192.054 9.97065C192.422 9.60893 192.626 9.11759 192.626 8.60516C192.629 8.47554 192.617 8.34593 192.596 8.21933C192.574 8.09574 192.538 7.97818 192.489 7.86062C192.443 7.74608 192.383 7.63756 192.31 7.53508C192.237 7.42656 192.152 7.3301 192.054 7.23967C191.966 7.14623 191.866 7.06183 191.756 6.98949C191.653 6.92016 191.543 6.85686 191.428 6.80863C191.312 6.7604 191.19 6.72724 191.069 6.70313C190.941 6.68203 190.81 6.66997 190.68 6.67298M190.676 6.31126C190.835 6.31126 190.99 6.32332 191.142 6.35347C191.291 6.38059 191.434 6.42279 191.574 6.48007C191.714 6.53734 191.844 6.60968 191.969 6.69107C192.097 6.77848 192.218 6.87796 192.328 6.98949C192.763 7.42053 193.003 8.00531 193 8.61119C193 9.22008 192.751 9.80184 192.316 10.2269C192.209 10.3384 192.091 10.4379 191.963 10.5253C191.838 10.6097 191.708 10.682 191.571 10.7393C191.434 10.7936 191.288 10.8358 191.142 10.8629C190.99 10.89 190.835 10.9021 190.68 10.8991C190.524 10.8991 190.366 10.887 190.211 10.8569C190.065 10.8297 189.919 10.7875 189.782 10.7303C189.642 10.673 189.509 10.6006 189.387 10.5162C189.259 10.4288 189.138 10.3294 189.028 10.2178C188.596 9.78677 188.356 9.202 188.356 8.59612C188.356 7.98723 188.605 7.40546 189.04 6.97743C189.15 6.8659 189.268 6.76643 189.393 6.67901C189.518 6.5916 189.649 6.52227 189.785 6.465C189.925 6.40772 190.065 6.36854 190.214 6.34141C190.366 6.31127 190.524 6.30222 190.68 6.30524M190.214 8.41827H190.947C191.069 8.41526 191.175 8.34291 191.224 8.2344C191.27 8.14096 191.276 8.03244 191.242 7.93598C191.209 7.83952 191.136 7.75814 191.041 7.71292C190.996 7.69182 190.947 7.67976 190.899 7.67675H190.211V8.42129L190.214 8.41827ZM189.655 9.87419V7.2457H191.026C191.157 7.23967 191.288 7.26982 191.403 7.33613C191.577 7.42656 191.704 7.58632 191.762 7.77321C191.817 7.9601 191.796 8.16206 191.701 8.33086C191.613 8.49363 191.458 8.60817 191.276 8.64435C191.409 8.65339 191.528 8.73176 191.589 8.84932C191.671 8.94276 191.711 9.06635 191.698 9.18994V9.66319C191.704 9.73553 191.717 9.80486 191.744 9.87117H191.233C191.206 9.78979 191.187 9.70539 191.184 9.61797V9.40998C191.194 9.2653 191.154 9.12061 191.063 9.00606C191.02 8.94879 190.965 8.90358 190.902 8.87042C190.835 8.83425 190.762 8.82219 190.686 8.82521H190.208V9.87117H189.649L189.655 9.87419Z" fill="white"/>
<path d="M25.8118 15.1463C25.8118 8.08072 20.0333 2.35352 12.9044 2.35352C5.77549 2.35352 0 8.08072 0 15.1463C0 21.3859 4.50421 26.5766 10.4652 27.71C7.94092 25.7476 6.85517 21.196 6.85517 14.2782H2.9136V13.3708H12.6702V17.5879C13.8016 14.9654 15.8971 12.8946 19.2364 12.8946C21.7334 12.8946 23.4487 14.7544 23.4487 16.8614C23.4487 18.6489 22.5272 20.2073 20.4834 20.2073C18.5856 20.2073 17.4603 19.4688 17.4603 17.7296C17.4603 16.6715 17.8648 16.132 17.9347 15.3995C17.9925 14.8449 17.6032 14.4922 16.9037 14.4922C15.8727 14.4922 12.579 17.1267 12.579 22.5555C12.579 24.771 12.7523 27.6346 14.4737 27.8366C20.8575 27.0709 25.8118 21.6813 25.8118 15.1433V15.1463ZM16.4992 12.6082C11.04 12.4635 8.756 8.36708 8.99626 4.12593C13.7803 4.27062 16.9798 7.81847 16.4992 12.6082Z" fill="white"/>
<path d="M55.0026 39.4818C55.1759 39.4818 55.2763 39.4938 55.3037 39.5209C55.331 39.5451 55.3462 39.6355 55.3462 39.7862V43.2286C55.3462 43.3069 55.3189 43.3763 55.2672 43.4335C55.2124 43.4908 55.1546 43.536 55.0877 43.5631C54.6924 43.6928 54.2787 43.7922 53.8499 43.8616C53.418 43.9309 52.9679 43.9641 52.4996 43.9641C51.8183 43.9641 51.1857 43.8706 50.6078 43.6867C50.027 43.5029 49.5282 43.2346 49.1085 42.8819C48.6888 42.5322 48.3633 42.0952 48.1292 41.5797C47.895 41.0613 47.7764 40.4705 47.7764 39.8043C47.7764 39.1954 47.8859 38.6377 48.1018 38.1313C48.3208 37.6249 48.631 37.1879 49.0385 36.8171C49.4461 36.4463 49.9418 36.16 50.5227 35.955C51.1066 35.75 51.7636 35.6445 52.4965 35.6445C52.9558 35.6445 53.3572 35.6626 53.6978 35.6988C54.0385 35.735 54.4034 35.8073 54.7897 35.9158C54.9144 35.946 54.963 36.0183 54.9387 36.1329L54.8779 36.5338C54.8688 36.6272 54.8079 36.6604 54.6924 36.6302C54.3213 36.5066 53.9685 36.4252 53.6309 36.3861C53.2933 36.3469 52.9162 36.3258 52.4965 36.3258C51.9126 36.3258 51.3834 36.4102 50.912 36.582C50.4406 36.7538 50.0361 36.9889 49.7046 37.2934C49.3731 37.5978 49.1176 37.9625 48.9412 38.3906C48.7648 38.8186 48.6766 39.2888 48.6766 39.8013C48.6766 40.3589 48.7709 40.8563 48.9594 41.2903C49.148 41.7244 49.4126 42.0891 49.7532 42.3815C50.0939 42.6739 50.4984 42.897 50.9606 43.0507C51.426 43.2014 51.9369 43.2798 52.4965 43.2798C53.4089 43.2798 54.0567 43.1833 54.443 42.9874V40.163H51.9643C51.8487 40.163 51.7909 40.1118 51.7909 40.0123V39.6325C51.7909 39.53 51.8487 39.4818 51.9643 39.4818H54.9965H55.0026Z" fill="white"/>
<path d="M65.3098 43.6752C65.3493 43.7777 65.3128 43.8259 65.2003 43.8259H64.6072C64.5585 43.8259 64.516 43.8199 64.4764 43.8048C64.4399 43.7897 64.4034 43.7475 64.373 43.6752L63.4606 41.6767H58.8256C58.6705 42.0173 58.5185 42.3489 58.3694 42.6744C58.2204 43 58.0744 43.3346 57.9254 43.6722C57.892 43.7445 57.8585 43.7867 57.822 43.8018C57.7855 43.8169 57.7429 43.8229 57.6912 43.8229H57.1103C56.9948 43.8229 56.9583 43.7717 57.0008 43.6722L60.6261 35.8952C60.6687 35.8078 60.7417 35.7656 60.8481 35.7656H61.5993C61.7058 35.7656 61.7788 35.8078 61.8214 35.8952L65.3098 43.6722V43.6752ZM63.1656 40.9804C62.822 40.2268 62.4904 39.4853 62.1741 38.7498C61.8578 38.0143 61.5263 37.2698 61.1827 36.5192C60.839 37.2728 60.4984 38.0173 60.1669 38.7498C59.8354 39.4853 59.4947 40.2298 59.1511 40.9804H63.1687H63.1656Z" fill="white"/>
<path d="M67.4537 43.8268H66.9002C66.7846 43.8268 66.7268 43.7756 66.7268 43.6761V36.074C66.7268 35.9233 66.742 35.8328 66.7694 35.8087C66.7968 35.7846 66.9002 35.7695 67.0705 35.7695H67.6362C67.7426 35.7695 67.8156 35.7786 67.8521 35.7967C67.8886 35.8147 67.9281 35.8569 67.9707 35.9202L72.6179 42.9466V35.9202C72.6179 35.8178 72.6757 35.7695 72.7912 35.7695H73.3326C73.4482 35.7695 73.5059 35.8208 73.5059 35.9202V43.5224C73.5059 43.6731 73.4907 43.7635 73.4634 43.7876C73.4329 43.8117 73.3326 43.8268 73.1623 43.8268H72.4111C72.3441 43.8268 72.2985 43.8208 72.2681 43.8057C72.2407 43.7906 72.2042 43.7545 72.1647 43.6972L67.627 36.7914V43.6761C67.627 43.7786 67.5693 43.8268 67.4537 43.8268Z" fill="white"/>
<path d="M82.7548 39.4818C82.9281 39.4818 83.0285 39.4938 83.0559 39.5209C83.0832 39.5451 83.0984 39.6355 83.0984 39.7862V43.2286C83.0984 43.3069 83.0711 43.3763 83.0194 43.4335C82.9646 43.4908 82.9068 43.536 82.8399 43.5631C82.4446 43.6928 82.0309 43.7922 81.6021 43.8616C81.1702 43.9309 80.7201 43.9641 80.2518 43.9641C79.5705 43.9641 78.9379 43.8706 78.36 43.6867C77.7792 43.5029 77.2804 43.2346 76.8607 42.8819C76.441 42.5322 76.1155 42.0952 75.8814 41.5797C75.6472 41.0613 75.5286 40.4705 75.5286 39.8043C75.5286 39.1954 75.6381 38.6377 75.854 38.1313C76.073 37.6249 76.3832 37.1879 76.7907 36.8171C77.1983 36.4463 77.694 36.16 78.2749 35.955C78.8588 35.75 79.5157 35.6445 80.2487 35.6445C80.708 35.6445 81.1094 35.6626 81.45 35.6988C81.7907 35.735 82.1556 35.8073 82.5419 35.9158C82.6666 35.946 82.7152 36.0183 82.6909 36.1329L82.6301 36.5338C82.621 36.6272 82.5601 36.6604 82.4446 36.6302C82.0735 36.5066 81.7207 36.4252 81.3831 36.3861C81.0455 36.3469 80.6684 36.3258 80.2487 36.3258C79.6648 36.3258 79.1356 36.4102 78.6642 36.582C78.1928 36.7538 77.7883 36.9889 77.4568 37.2934C77.1253 37.5978 76.8698 37.9625 76.6934 38.3906C76.517 38.8186 76.4288 39.2888 76.4288 39.8013C76.4288 40.3589 76.5231 40.8563 76.7116 41.2903C76.9002 41.7244 77.1648 42.0891 77.5054 42.3815C77.8461 42.6739 78.2506 42.897 78.7128 43.0507C79.1782 43.2014 79.6891 43.2798 80.2487 43.2798C81.1611 43.2798 81.8089 43.1833 82.1952 42.9874V40.163H79.7165C79.6009 40.163 79.5431 40.1118 79.5431 40.0123V39.6325C79.5431 39.53 79.6009 39.4818 79.7165 39.4818H82.7487H82.7548Z" fill="white"/>
<path d="M94.1963 43.7178C94.172 43.7901 94.1173 43.8263 94.0352 43.8263H93.2079C93.1167 43.8263 93.065 43.7901 93.0467 43.7178L90.7414 36.6582C90.346 37.8368 89.9567 39.0124 89.5705 40.182C89.1842 41.3515 88.7949 42.5301 88.3996 43.7178C88.3752 43.7901 88.3205 43.8263 88.2384 43.8263H87.3868C87.2956 43.8263 87.2439 43.7901 87.2256 43.7178L84.6983 35.9408C84.6831 35.9047 84.6861 35.8715 84.7104 35.8384C84.7348 35.8052 84.7713 35.7901 84.8199 35.7901H85.4008C85.5164 35.7901 85.5894 35.8414 85.6228 35.9408L87.843 43.0004C88.2292 41.8127 88.6155 40.6462 89.0018 39.4977C89.388 38.3493 89.7743 37.1827 90.1605 35.9951C90.1757 35.9228 90.2122 35.8715 90.27 35.8384C90.3278 35.8052 90.3947 35.7901 90.4677 35.7901H91.1094C91.2493 35.7901 91.3405 35.8595 91.3801 35.9951L93.6367 42.9552C94.0139 41.7524 94.388 40.5829 94.759 39.4465C95.13 38.3101 95.5072 37.1405 95.8934 35.9378C95.9086 35.8956 95.939 35.8595 95.9786 35.8293C96.0181 35.7992 96.0637 35.7871 96.1154 35.7871H96.6325C96.6811 35.7871 96.7176 35.8022 96.745 35.8353C96.7693 35.8685 96.7724 35.9017 96.7572 35.9378L94.1933 43.7148L94.1963 43.7178Z" fill="white"/>
<path d="M105.994 39.8078C105.978 41.0979 105.641 42.1017 104.984 42.8282C104.269 43.6089 103.262 44.0007 101.964 44.0007C100.665 44.0007 99.6554 43.6089 98.9316 42.8282C98.2564 42.0836 97.9219 41.0768 97.9219 39.8078C97.9219 39.208 98.004 38.6654 98.1682 38.1801C98.3325 37.6948 98.5697 37.2637 98.8829 36.8869C99.254 36.489 99.698 36.1786 100.221 35.9585C100.744 35.7385 101.325 35.627 101.967 35.627C102.609 35.627 103.199 35.7355 103.713 35.9525C104.227 36.1695 104.668 36.486 105.039 36.896C105.358 37.2878 105.601 37.7219 105.765 38.2042C105.93 38.6865 106.009 39.22 106 39.8048L105.994 39.8078ZM105.093 39.8078C105.093 39.3526 105.026 38.9216 104.896 38.5147C104.765 38.1107 104.579 37.743 104.342 37.4175C104.053 37.0618 103.713 36.7905 103.314 36.5976C102.916 36.4046 102.466 36.3112 101.964 36.3112C101.462 36.3112 101 36.4077 100.601 36.5976C100.203 36.7905 99.8592 37.0618 99.5733 37.4175C99.3361 37.743 99.1506 38.1077 99.0198 38.5147C98.889 38.9216 98.8221 39.3496 98.8221 39.8078C98.8221 40.266 98.889 40.697 99.0198 41.107C99.1506 41.5169 99.3361 41.8847 99.5733 42.2102C99.8683 42.5569 100.218 42.8282 100.623 43.0241C101.027 43.22 101.474 43.3165 101.967 43.3165C102.46 43.3165 102.919 43.22 103.317 43.0301C103.716 42.8372 104.059 42.5659 104.345 42.2102C104.582 41.8847 104.768 41.5169 104.899 41.107C105.029 40.697 105.096 40.266 105.096 39.8078H105.093Z" fill="white"/>
<path d="M108.633 43.8268H108.08C107.964 43.8268 107.906 43.7756 107.906 43.6761V36.074C107.906 35.9233 107.922 35.8328 107.949 35.8087C107.976 35.7846 108.08 35.7695 108.25 35.7695H108.816C108.922 35.7695 108.995 35.7786 109.032 35.7967C109.068 35.8147 109.108 35.8569 109.147 35.9202L113.795 42.9466V35.9202C113.795 35.8178 113.852 35.7695 113.968 35.7695H114.509C114.625 35.7695 114.683 35.8208 114.683 35.9202V43.5224C114.683 43.6731 114.667 43.7635 114.64 43.7876C114.61 43.8117 114.509 43.8268 114.339 43.8268H113.588C113.521 43.8268 113.475 43.8208 113.445 43.8057C113.417 43.7906 113.381 43.7545 113.341 43.6972L108.804 36.7914V43.6761C108.804 43.7786 108.746 43.8268 108.63 43.8268H108.633Z" fill="white"/>
<path d="M120.257 43.7174C120.127 43.6812 120.072 43.6149 120.096 43.5215L120.145 43.0211C120.16 42.9638 120.188 42.9246 120.224 42.9005C120.261 42.8794 120.303 42.8824 120.355 42.9126C120.644 43.0512 120.933 43.1507 121.225 43.211C121.517 43.2713 121.851 43.3044 122.228 43.3044C122.827 43.3044 123.32 43.1597 123.7 42.8704C124.083 42.581 124.272 42.171 124.272 41.6435C124.272 41.4325 124.181 41.2245 123.995 41.0135C123.81 40.8025 123.554 40.6036 123.226 40.4167C122.937 40.2569 122.615 40.0912 122.253 39.9163C121.891 39.7415 121.547 39.5516 121.219 39.3466C120.89 39.1416 120.613 38.9095 120.391 38.6503C120.169 38.3941 120.06 38.0957 120.06 37.7551C120.06 37.4144 120.142 37.101 120.306 36.8387C120.47 36.5734 120.689 36.3534 120.966 36.1756C121.24 35.9977 121.556 35.8621 121.909 35.7686C122.262 35.6752 122.624 35.627 122.995 35.627C123.314 35.627 123.6 35.642 123.846 35.6752C124.093 35.7083 124.36 35.7626 124.646 35.844C124.771 35.8802 124.819 35.9465 124.795 36.0399L124.698 36.4649C124.674 36.5885 124.604 36.6217 124.488 36.5614C124.257 36.4679 124.035 36.4046 123.816 36.3715C123.597 36.3383 123.32 36.3233 122.983 36.3233C122.712 36.3233 122.453 36.3534 122.213 36.4107C121.97 36.4679 121.76 36.5554 121.584 36.6699C121.407 36.7845 121.264 36.9291 121.158 37.104C121.051 37.2788 120.997 37.4838 120.997 37.7219C120.997 37.9088 121.07 38.0866 121.212 38.2524C121.355 38.4182 121.532 38.575 121.742 38.7196C121.952 38.8643 122.177 38.997 122.42 39.1145C122.663 39.2351 122.882 39.3436 123.08 39.4461C123.351 39.5848 123.615 39.7234 123.868 39.8681C124.123 40.0128 124.348 40.1756 124.546 40.3564C124.743 40.5373 124.905 40.7362 125.026 40.9533C125.151 41.1703 125.212 41.4205 125.212 41.7038C125.212 42.0655 125.127 42.3881 124.959 42.6714C124.792 42.9548 124.567 43.1929 124.287 43.3888C124.007 43.5848 123.685 43.7355 123.32 43.841C122.955 43.9465 122.575 43.9977 122.18 43.9977C121.818 43.9977 121.495 43.9766 121.212 43.9314C120.93 43.8892 120.61 43.8169 120.257 43.7144V43.7174Z" fill="white"/>
<path d="M134.831 39.8078C134.816 41.0979 134.479 42.1017 133.822 42.8282C133.107 43.6089 132.1 44.0007 130.802 44.0007C129.503 44.0007 128.493 43.6089 127.769 42.8282C127.094 42.0836 126.76 41.0768 126.76 39.8078C126.76 39.208 126.842 38.6654 127.006 38.1801C127.17 37.6948 127.408 37.2637 127.721 36.8869C128.092 36.489 128.536 36.1786 129.059 35.9585C129.582 35.7385 130.163 35.627 130.805 35.627C131.446 35.627 132.036 35.7355 132.55 35.9525C133.064 36.1695 133.505 36.486 133.876 36.896C134.196 37.2878 134.439 37.7219 134.603 38.2042C134.768 38.6865 134.847 39.22 134.838 39.8048L134.831 39.8078ZM133.931 39.8078C133.931 39.3526 133.864 38.9216 133.734 38.5147C133.603 38.1107 133.417 37.743 133.18 37.4175C132.891 37.0618 132.55 36.7905 132.152 36.5976C131.754 36.4046 131.304 36.3112 130.802 36.3112C130.3 36.3112 129.838 36.4077 129.439 36.5976C129.041 36.7905 128.697 37.0618 128.411 37.4175C128.174 37.743 127.988 38.1077 127.858 38.5147C127.727 38.9216 127.66 39.3496 127.66 39.8078C127.66 40.266 127.727 40.697 127.858 41.107C127.988 41.5169 128.174 41.8847 128.411 42.2102C128.706 42.5569 129.056 42.8282 129.46 43.0241C129.862 43.22 130.312 43.3165 130.805 43.3165C131.297 43.3165 131.757 43.22 132.155 43.0301C132.554 42.8372 132.897 42.5659 133.183 42.2102C133.42 41.8847 133.606 41.5169 133.737 41.107C133.867 40.697 133.934 40.266 133.934 39.8078H133.931Z" fill="white"/>
<path d="M139.083 39.8282L137.876 41.0762V43.6715C137.876 43.774 137.818 43.8222 137.702 43.8222H137.161C137.046 43.8222 136.988 43.771 136.988 43.6715V35.9398C136.988 35.8373 137.046 35.7891 137.161 35.7891H137.702C137.818 35.7891 137.876 35.8403 137.876 35.9398V40.0784L141.687 35.9398C141.802 35.8373 141.942 35.7891 142.106 35.7891H142.797C142.845 35.7891 142.876 35.8041 142.888 35.8373C142.9 35.8704 142.888 35.9036 142.845 35.9398L139.664 39.2314L143.14 43.6745C143.213 43.777 143.198 43.8252 143.092 43.8252H142.426C142.344 43.8252 142.271 43.8132 142.204 43.7921C142.137 43.771 142.085 43.7288 142.042 43.6715L139.083 39.8282Z" fill="white"/>
<path d="M150.908 43.0445C150.957 43.0294 151.002 43.0294 151.045 43.0385C151.084 43.0505 151.106 43.0777 151.106 43.1199L151.13 43.5449C151.139 43.6383 151.081 43.7046 150.957 43.7408C150.686 43.8192 150.406 43.8795 150.117 43.9157C149.828 43.9518 149.466 43.9699 149.031 43.9699C147.602 43.9699 146.462 43.5871 145.616 42.8184C145.196 42.4417 144.886 42.0046 144.685 41.5042C144.485 41.0038 144.384 40.4401 144.384 39.8102C144.384 38.5713 144.807 37.5705 145.653 36.8019C146.516 36.0332 147.642 35.6504 149.031 35.6504C149.229 35.6504 149.409 35.6534 149.567 35.6624C149.728 35.6685 149.883 35.6805 150.035 35.6956C150.187 35.7107 150.336 35.7288 150.485 35.7499C150.634 35.771 150.789 35.8011 150.954 35.8373C151.078 35.8584 151.133 35.9277 151.127 36.0423L151.103 36.4763C151.087 36.5788 151.024 36.6089 150.917 36.5728C150.598 36.4793 150.294 36.416 150.005 36.3829C149.716 36.3497 149.393 36.3346 149.031 36.3346C147.873 36.3346 146.948 36.6602 146.258 37.3113C145.616 37.9413 145.297 38.7732 145.297 39.8102C145.297 40.3316 145.376 40.8019 145.531 41.2209C145.686 41.6398 145.926 42.0076 146.246 42.3181C146.912 42.9692 147.839 43.2917 149.031 43.2857C149.375 43.2796 149.719 43.2555 150.059 43.2193C150.4 43.1832 150.683 43.1259 150.905 43.0445H150.908Z" fill="white"/>
<path d="M159.548 43.675C159.548 43.7775 159.491 43.8257 159.375 43.8257H158.822C158.706 43.8257 158.648 43.7745 158.648 43.675V40.0156H153.977V43.675C153.977 43.7775 153.919 43.8257 153.803 43.8257H153.25C153.134 43.8257 153.076 43.7745 153.076 43.675V35.9222C153.076 35.8197 153.134 35.7715 153.25 35.7715H153.803C153.919 35.7715 153.977 35.8227 153.977 35.9222V39.3314H158.648V35.9222C158.648 35.8197 158.706 35.7715 158.822 35.7715H159.375C159.491 35.7715 159.548 35.8227 159.548 35.9222V43.675Z" fill="white"/>
<path d="M169.682 39.8078C169.667 41.0979 169.329 42.1017 168.672 42.8282C167.958 43.6089 166.951 44.0007 165.652 44.0007C164.354 44.0007 163.344 43.6089 162.62 42.8282C161.945 42.0836 161.61 41.0768 161.61 39.8078C161.61 39.208 161.693 38.6654 161.857 38.1801C162.021 37.6948 162.258 37.2637 162.572 36.8869C162.943 36.489 163.387 36.1786 163.91 35.9585C164.433 35.7385 165.014 35.627 165.655 35.627C166.297 35.627 166.887 35.7355 167.401 35.9525C167.915 36.1695 168.356 36.486 168.727 36.896C169.047 37.2878 169.29 37.7219 169.454 38.2042C169.618 38.6865 169.697 39.22 169.688 39.8048L169.682 39.8078ZM168.782 39.8078C168.782 39.3526 168.715 38.9216 168.584 38.5147C168.453 38.1107 168.268 37.743 168.031 37.4175C167.742 37.0618 167.401 36.7905 167.003 36.5976C166.604 36.4046 166.154 36.3112 165.652 36.3112C165.151 36.3112 164.688 36.4077 164.29 36.5976C163.891 36.7905 163.548 37.0618 163.262 37.4175C163.025 37.743 162.839 38.1077 162.708 38.5147C162.578 38.9216 162.511 39.3496 162.511 39.8078C162.511 40.266 162.578 40.697 162.708 41.107C162.839 41.5169 163.025 41.8847 163.262 42.2102C163.557 42.5569 163.907 42.8282 164.311 43.0241C164.713 43.22 165.163 43.3165 165.655 43.3165C166.148 43.3165 166.607 43.22 167.006 43.0301C167.404 42.8372 167.748 42.5659 168.034 42.2102C168.271 41.8847 168.457 41.5169 168.587 41.107C168.718 40.697 168.785 40.266 168.785 39.8078H168.782Z" fill="white"/>
</g>
<defs>
<clipPath id="clip0_351_272">
<rect width="193" height="44" fill="white"/>
</clipPath>
</defs>
</svg>
