<svg width="85" height="85" viewBox="0 0 85 85" fill="none" xmlns="http://www.w3.org/2000/svg">
<path d="M84.87 42.44C84.87 19 65.87 0 42.43 0C18.99 0 0 19 0 42.44C0 63.14 14.81 80.36 34.41 84.12C26.11 77.61 22.54 62.51 22.54 39.56H9.58V36.55H41.66V50.54C45.38 41.84 52.27 34.97 63.25 34.97C71.46 34.97 77.1 41.14 77.1 48.13C77.1 54.06 74.07 59.23 67.35 59.23C61.11 59.23 57.41 56.78 57.41 51.01C57.41 47.5 58.74 45.71 58.97 43.28C59.16 41.44 57.88 40.27 55.58 40.27C52.19 40.27 41.36 49.01 41.36 67.02C41.36 74.37 41.93 83.87 47.59 84.54C68.58 82 84.87 64.12 84.87 42.43V42.44ZM54.25 34.02C36.3 33.54 28.79 19.95 29.58 5.88C45.31 6.36 55.83 18.13 54.25 34.02Z" fill="#A9002B"/>
</svg>
