<svg width="98" height="36" viewBox="0 0 98 36" fill="none" xmlns="http://www.w3.org/2000/svg">
<path d="M0 0H34V34H0V0Z" fill="#DB0032"/>
<path d="M27.8542 14.3956H22.5345C22.3013 12.8631 21.4414 12.6218 20.4211 12.6218C18.7936 12.6927 15.0427 12.3479 13.4253 12.6218C11.7492 12.9056 11.2876 13.7807 11.239 14.3956C11.1662 15.3179 11.0642 17.5599 11.239 19.1492C11.4139 20.7385 12.4293 21.1358 12.9151 21.1358C15.3686 21.325 20.5086 21.5899 21.4414 21.1358C22.3741 20.6818 22.7531 19.8587 22.826 19.504H28C28 23.2502 25.0851 24.778 23.6276 24.9672C20.1054 25.0381 12.099 24.9955 10.2917 24.8253C8.03262 24.6124 6.64156 22.792 6.35652 21.7744C6.13791 20.9939 5.95762 16.3822 6.00875 15.8146C6.28359 12.7637 5.99218 14.2537 6.7209 11.5575C7.20031 9.78378 9.56295 9.00334 10.6561 9.00336H21.4414C22.9717 9.00336 25.4494 8.86146 26.6154 10.4224C27.5482 11.6711 27.83 13.5915 27.8542 14.3956Z" fill="white"/>
<path d="M97.4395 13.502V15.6934H79.6074V13.502H87.127V11.9336C83.6035 11.6436 81.3906 10.1826 81.3906 7.91602C81.3906 5.4668 84.2051 3.91992 88.5234 3.91992C92.7988 3.91992 95.6133 5.4668 95.6348 7.91602C95.6133 10.1934 93.3789 11.6543 89.877 11.9336V13.502H97.4395ZM95.4199 20.4414V22.6328H81.7559V16.918H84.5059V20.4414H95.4199ZM88.5234 6.08984C85.8164 6.08984 84.2266 6.75586 84.248 7.91602C84.2266 9.18359 85.8164 9.78516 88.5234 9.78516C91.2305 9.78516 92.7988 9.18359 92.7988 7.91602C92.7988 6.75586 91.2305 6.08984 88.5234 6.08984Z" fill="#44494D"/>
<path d="M68.0703 5.38086V12.793H63.7734V16.123C65.6748 16.1016 67.4795 16.0156 69.5098 15.6289L69.7461 17.8633C67.1895 18.3359 64.998 18.3789 62.5273 18.4004H61.1523V10.623H65.4277V7.55078H61.1309V5.38086H68.0703ZM77.502 3.42578V22.9766H74.9023V3.42578H77.502ZM73.4414 3.79102V22.0312H70.8848V12.3203H68.8867V10.1074H70.8848V3.79102H73.4414Z" fill="#44494D"/>
<path d="M57.5859 5.14453V7.42188C57.5859 10.2578 57.5859 12.9863 56.6836 17.2188L53.9551 16.9609C54.3418 15.3281 54.5566 13.8994 54.707 12.5781L43.3633 13.1367L43.0195 10.9453L54.8359 10.5156C54.8896 9.45215 54.8896 8.43164 54.9004 7.42188V7.33594H43.6211V5.14453H57.5859ZM59.4121 18.4004V20.6348H41.5801V18.4004H59.4121Z" fill="#44494D"/>
<path d="M95.125 27.6172V32.9688H94.1172V32.1797H92.7266V31.3984H94.1172V27.6172H95.125ZM95.2891 33.7969V34.5938H89.9844V32.4219H90.8984V31.0547C90.2617 31.082 89.6562 31.0898 89.125 31.0938L89 30.3047C89.8438 30.3008 90.8828 30.2891 91.9297 30.2266C92.0156 29.6133 92.0508 29.125 92.0625 28.75H89.6484V27.9609H93.0625V28.2266C93.0625 28.5938 93.0625 29.2461 92.9219 30.1484C93.1523 30.125 93.3828 30.1016 93.6094 30.0703L93.6719 30.7734C93.0859 30.8789 92.4805 30.9492 91.8828 30.9922V32.5234H90.9844V33.7969H95.2891Z" fill="#878D92"/>
<path d="M88.6172 30.8828V31.6875H82.1328V30.8828H88.6172ZM85.3672 32.0859C86.9062 32.0859 87.8359 32.5703 87.8438 33.4062C87.8359 34.25 86.9062 34.7188 85.3672 34.7188C83.8125 34.7188 82.875 34.25 82.875 33.4062C82.875 32.5703 83.8125 32.0859 85.3672 32.0859ZM85.3672 32.8594C84.3828 32.8594 83.8828 33.0312 83.8906 33.4062C83.8828 33.7734 84.3828 33.9453 85.3672 33.9453C86.3281 33.9453 86.8359 33.7734 86.8438 33.4062C86.8359 33.0312 86.3281 32.8594 85.3672 32.8594ZM88.0312 27.9375V28.7344H86.0938C86.2539 29.2305 86.9766 29.7227 88.3438 29.8438L87.9922 30.625C86.6523 30.4961 85.7461 29.9883 85.3672 29.2969C84.9922 29.9883 84.1016 30.4961 82.75 30.625L82.4219 29.8438C83.7578 29.7227 84.4883 29.2344 84.6562 28.7344H82.7266V27.9375H88.0312Z" fill="#878D92"/>
<path d="M81.1719 27.6172V32.8047H80.1719V27.6172H81.1719ZM81.3594 33.7969V34.5938H76.4062V32.3047H77.4141V33.7969H81.3594ZM77.9453 28.6953C77.9375 29.6328 78.4375 30.5547 79.6094 30.9297L79.1016 31.7109C78.3008 31.4453 77.7461 30.9141 77.4297 30.2344C77.1133 30.9648 76.543 31.5508 75.7109 31.8359L75.1953 31.0469C76.3906 30.6484 76.9062 29.6562 76.9062 28.6953V28.0078H77.9453V28.6953Z" fill="#878D92"/>
<path d="M74.4531 27.6094V34.7188H73.5078V31.1484H72.8203V34.375H71.9062V27.7266H72.8203V30.3516H73.5078V27.6094H74.4531ZM71.1562 28.4297V29.2344H69.5078V32.2656C70.1953 32.2617 70.8047 32.2266 71.4922 32.1016L71.5625 32.9141C70.6953 33.0781 69.9375 33.1016 69 33.1094H68.5078V28.4297H71.1562Z" fill="#878D92"/>
<path d="M62.8828 35.5938C62.6562 35.5938 62.4453 35.5859 62.2969 35.5703V34.6719C62.4453 34.6797 62.6172 34.6875 62.7656 34.6875C62.9922 34.6875 63.1797 34.6641 63.3203 34.2969L63.3906 34.1172L61.8672 29.7578H63.0781L63.9688 32.8828H64.0156L64.9141 29.7578H66.1406L64.4844 34.4688C64.2422 35.1484 63.7812 35.5938 62.8828 35.5938Z" fill="#878D92"/>
<path d="M57.4766 34V28.3438H58.6328V30.4688H58.6641C58.8281 30.125 59.1641 29.7031 59.875 29.7031C60.8125 29.7031 61.6016 30.4297 61.6016 31.8828C61.6016 33.2969 60.8438 34.0703 59.875 34.0703C59.1797 34.0703 58.8281 33.6719 58.6641 33.3203H58.6172V34H57.4766ZM58.6094 31.875C58.6094 32.6406 58.9375 33.1484 59.5078 33.1484C60.1016 33.1484 60.4141 32.625 60.4141 31.875C60.4141 31.1328 60.1016 30.625 59.5078 30.625C58.9297 30.625 58.6094 31.1094 58.6094 31.875Z" fill="#878D92"/>
</svg>
