<svg width="178" height="73" viewBox="0 0 178 73" fill="none" xmlns="http://www.w3.org/2000/svg">
<rect width="72.7222" height="72.7222" fill="#DB0032"/>
<path d="M59.5773 30.7906H48.1989C47.7001 27.5127 45.8609 26.9966 43.6787 26.9966C40.1976 27.1484 32.1748 26.4108 28.7153 26.9966C25.1303 27.6036 24.1432 29.4753 24.0392 30.7906C23.8834 32.7634 23.6652 37.5588 24.0392 40.9581C24.4133 44.3574 26.5851 45.2072 27.6242 45.2072C32.8718 45.6119 43.8657 46.1784 45.8609 45.2072C47.856 44.236 48.6665 42.4756 48.8224 41.7169H59.8891C59.8891 49.7295 53.6543 52.9973 50.537 53.402C43.0033 53.5537 25.8785 53.4627 22.013 53.0985C17.1811 52.6432 14.2057 48.7495 13.5961 46.573C13.1285 44.9037 12.7429 35.0396 12.8522 33.8256C13.4401 27.3001 12.8168 30.4871 14.3754 24.7203C15.4008 20.9264 20.4543 19.2571 22.7923 19.2572H45.8609C49.1341 19.2572 54.4336 18.9537 56.9275 22.2923C58.9226 24.9632 59.5253 29.0707 59.5773 30.7906Z" fill="white"/>
<path d="M177.094 25.0938V28.2812H151.156V25.0938H162.094V22.8125C156.969 22.3906 153.75 20.2656 153.75 16.9688C153.75 13.4062 157.844 11.1562 164.125 11.1562C170.344 11.1562 174.438 13.4062 174.469 16.9688C174.438 20.2812 171.188 22.4062 166.094 22.8125V25.0938H177.094ZM174.156 35.1875V38.375H154.281V30.0625H158.281V35.1875H174.156ZM164.125 14.3125C160.188 14.3125 157.875 15.2812 157.906 16.9688C157.875 18.8125 160.188 19.6875 164.125 19.6875C168.062 19.6875 170.344 18.8125 170.344 16.9688C170.344 15.2812 168.062 14.3125 164.125 14.3125Z" fill="white"/>
<path d="M134.375 13.2812V24.0625H128.125V28.9062C130.891 28.875 133.516 28.75 136.469 28.1875L136.812 31.4375C133.094 32.125 129.906 32.1875 126.312 32.2188H124.312V20.9062H130.531V16.4375H124.281V13.2812H134.375ZM148.094 10.4375V38.875H144.312V10.4375H148.094ZM142.188 10.9688V37.5H138.469V23.375H135.562V20.1562H138.469V10.9688H142.188Z" fill="white"/>
<path d="M119.125 12.9375V16.25C119.125 20.375 119.125 24.3438 117.812 30.5L113.844 30.125C114.406 27.75 114.719 25.6719 114.938 23.75L98.4375 24.5625L97.9375 21.375L115.125 20.75C115.203 19.2031 115.203 17.7188 115.219 16.25V16.125H98.8125V12.9375H119.125ZM121.781 32.2188V35.4688H95.8438V32.2188H121.781Z" fill="white"/>
<path d="M172.484 49.0322V59.0664H170.595V57.5869H167.987V56.1221H170.595V49.0322H172.484ZM172.792 60.6191V62.1133H162.846V58.041H164.56V55.4775C163.366 55.5288 162.23 55.5435 161.234 55.5508L161 54.0713C162.582 54.064 164.53 54.042 166.493 53.9248C166.654 52.7749 166.72 51.8594 166.742 51.1562H162.216V49.6768H168.617V50.1748C168.617 50.8633 168.617 52.0864 168.354 53.7783C168.786 53.7344 169.218 53.6904 169.643 53.6318L169.76 54.9502C168.661 55.1479 167.526 55.2798 166.405 55.3604V58.2314H164.721V60.6191H172.792Z" fill="white"/>
<path d="M160.282 55.1553V56.6641H148.124V55.1553H160.282ZM154.188 57.4111C157.074 57.4111 158.817 58.3193 158.832 59.8867C158.817 61.4688 157.074 62.3477 154.188 62.3477C151.273 62.3477 149.516 61.4688 149.516 59.8867C149.516 58.3193 151.273 57.4111 154.188 57.4111ZM154.188 58.8613C152.343 58.8613 151.405 59.1836 151.42 59.8867C151.405 60.5752 152.343 60.8975 154.188 60.8975C155.99 60.8975 156.942 60.5752 156.957 59.8867C156.942 59.1836 155.99 58.8613 154.188 58.8613ZM159.184 49.6328V51.127H155.551C155.851 52.0571 157.206 52.98 159.77 53.207L159.11 54.6719C156.598 54.4302 154.899 53.478 154.188 52.1816C153.485 53.478 151.815 54.4302 149.281 54.6719L148.666 53.207C151.171 52.98 152.541 52.0645 152.855 51.127H149.237V49.6328H159.184Z" fill="white"/>
<path d="M146.322 49.0322V58.7588H144.447V49.0322H146.322ZM146.674 60.6191V62.1133H137.387V57.8213H139.276V60.6191H146.674ZM140.272 51.0537C140.258 52.8115 141.195 54.54 143.393 55.2432L142.44 56.708C140.939 56.21 139.899 55.2139 139.306 53.9395C138.712 55.3091 137.643 56.4077 136.083 56.9424L135.116 55.4629C137.357 54.7158 138.324 52.8555 138.324 51.0537V49.7646H140.272V51.0537Z" fill="white"/>
<path d="M133.725 49.0176V62.3477H131.952V55.6533H130.663V61.7031H128.949V49.2373H130.663V54.1592H131.952V49.0176H133.725ZM127.543 50.5557V52.0645H124.452V57.748C125.741 57.7407 126.884 57.6748 128.173 57.4404L128.305 58.9639C126.679 59.2715 125.258 59.3154 123.5 59.3301H122.577V50.5557H127.543Z" fill="white"/>
<path d="M112.03 63.9883C111.605 63.9883 111.21 63.9736 110.932 63.9443V62.2598C111.21 62.2744 111.532 62.2891 111.811 62.2891C112.235 62.2891 112.587 62.2451 112.851 61.5566L112.982 61.2197L110.126 53.0459H112.396L114.066 58.9053H114.154L115.839 53.0459H118.139L115.033 61.8789C114.579 63.1533 113.715 63.9883 112.03 63.9883Z" fill="white"/>
<path d="M101.894 61V50.3945H104.062V54.3789H104.12C104.428 53.7344 105.058 52.9434 106.391 52.9434C108.148 52.9434 109.628 54.3057 109.628 57.0303C109.628 59.6816 108.207 61.1318 106.391 61.1318C105.087 61.1318 104.428 60.3848 104.12 59.7256H104.032V61H101.894ZM104.018 57.0156C104.018 58.4512 104.633 59.4033 105.702 59.4033C106.815 59.4033 107.401 58.4219 107.401 57.0156C107.401 55.624 106.815 54.6719 105.702 54.6719C104.618 54.6719 104.018 55.5801 104.018 57.0156Z" fill="white"/>
</svg>
