<svg width="34" height="34" viewBox="0 0 34 34" fill="none" xmlns="http://www.w3.org/2000/svg">
<path d="M0 0H34V34H0V0Z" fill="#DB0032"/>
<path d="M27.8542 14.3956H22.5345C22.3013 12.8631 21.4414 12.6218 20.4211 12.6218C18.7936 12.6927 15.0427 12.3479 13.4253 12.6218C11.7492 12.9056 11.2876 13.7807 11.239 14.3956C11.1662 15.3179 11.0642 17.5599 11.239 19.1492C11.4139 20.7385 12.4293 21.1358 12.9151 21.1358C15.3686 21.325 20.5086 21.5899 21.4414 21.1358C22.3741 20.6818 22.7531 19.8587 22.826 19.504H28C28 23.2502 25.0851 24.778 23.6276 24.9672C20.1054 25.0381 12.099 24.9955 10.2917 24.8253C8.03262 24.6124 6.64156 22.792 6.35652 21.7744C6.13791 20.9939 5.95762 16.3822 6.00875 15.8146C6.28359 12.7637 5.99218 14.2537 6.7209 11.5575C7.20031 9.78378 9.56295 9.00334 10.6561 9.00336H21.4414C22.9717 9.00336 25.4494 8.86146 26.6154 10.4224C27.5482 11.6711 27.83 13.5915 27.8542 14.3956Z" fill="white"/>
</svg>
